<svg width="50" height="50" viewBox="0 0 50 50" fill="none" xmlns="http://www.w3.org/2000/svg">
<path d="M25 45.8334C33.6042 45.8334 40.625 38.8126 40.625 30.2084V19.7917C40.625 11.1876 33.6042 4.16675 25 4.16675C16.3958 4.16675 9.375 11.1876 9.375 19.7917V30.2084C9.375 38.8126 16.3958 45.8334 25 45.8334Z" stroke="white" stroke-width="1.5" stroke-linecap="round" stroke-linejoin="round"/>
<path d="M25 22.9167C23.2708 22.9167 21.875 21.5208 21.875 19.7917V15.625C21.875 13.8958 23.2708 12.5 25 12.5C26.7083 12.5 28.125 13.8958 28.125 15.625V19.7917C28.125 21.5208 26.7083 22.9167 25 22.9167Z" stroke="white" stroke-width="1.5" stroke-linecap="round" stroke-linejoin="round"/>
<path d="M25 12.5001V4.16675" stroke="white" stroke-width="1.5" stroke-linecap="round" stroke-linejoin="round"/>
</svg>
