<svg width="50" height="50" viewBox="0 0 50 50" fill="none" xmlns="http://www.w3.org/2000/svg">
<path d="M20 41.6666H30C38.3333 41.6666 41.6666 38.3333 41.6666 29.9999V19.9999C41.6666 11.6666 38.3333 8.33325 30 8.33325H20C11.6666 8.33325 8.33331 11.6666 8.33331 19.9999V29.9999C8.33331 38.3333 11.6666 41.6666 20 41.6666Z" stroke="white" stroke-width="1.5" stroke-linecap="round" stroke-linejoin="round"/>
<path d="M21.875 35.4166H28.125C33.3333 35.4166 35.4166 33.3333 35.4166 28.1249V21.8749C35.4166 16.6666 33.3333 14.5833 28.125 14.5833H21.875C16.6666 14.5833 14.5833 16.6666 14.5833 21.8749V28.1249C14.5833 33.3333 16.6666 35.4166 21.875 35.4166Z" stroke="white" stroke-width="1.5" stroke-linecap="round" stroke-linejoin="round"/>
<path d="M16.6875 8.33341V4.16675" stroke="white" stroke-width="1.5" stroke-linecap="round" stroke-linejoin="round"/>
<path d="M25 8.33341V4.16675" stroke="white" stroke-width="1.5" stroke-linecap="round" stroke-linejoin="round"/>
<path d="M33.3333 8.33341V4.16675" stroke="white" stroke-width="1.5" stroke-linecap="round" stroke-linejoin="round"/>
<path d="M41.6667 16.6667H45.8334" stroke="white" stroke-width="1.5" stroke-linecap="round" stroke-linejoin="round"/>
<path d="M41.6667 25H45.8334" stroke="white" stroke-width="1.5" stroke-linecap="round" stroke-linejoin="round"/>
<path d="M41.6667 33.3333H45.8334" stroke="white" stroke-width="1.5" stroke-linecap="round" stroke-linejoin="round"/>
<path d="M33.3333 41.6667V45.8334" stroke="white" stroke-width="1.5" stroke-linecap="round" stroke-linejoin="round"/>
<path d="M25.0208 41.6667V45.8334" stroke="white" stroke-width="1.5" stroke-linecap="round" stroke-linejoin="round"/>
<path d="M16.6875 41.6667V45.8334" stroke="white" stroke-width="1.5" stroke-linecap="round" stroke-linejoin="round"/>
<path d="M4.16669 16.6667H8.33335" stroke="white" stroke-width="1.5" stroke-linecap="round" stroke-linejoin="round"/>
<path d="M4.16669 25H8.33335" stroke="white" stroke-width="1.5" stroke-linecap="round" stroke-linejoin="round"/>
<path d="M4.16669 33.3333H8.33335" stroke="white" stroke-width="1.5" stroke-linecap="round" stroke-linejoin="round"/>
</svg>
