<svg width="50" height="50" viewBox="0 0 50 50" fill="none" xmlns="http://www.w3.org/2000/svg">
<path d="M41.2292 31.1043C36.9375 35.3751 30.7917 36.6876 25.3959 35.0001L15.5834 44.7918C14.875 45.5209 13.4792 45.9584 12.4792 45.8126L7.93754 45.1876C6.43754 44.9793 5.04171 43.5626 4.81254 42.0626L4.18754 37.5209C4.04171 36.5209 4.52087 35.1251 5.20837 34.4168L15 24.6251C13.3334 19.2084 14.625 13.0626 18.9167 8.79175C25.0625 2.64591 35.0417 2.64591 41.2084 8.79175C47.375 14.9376 47.375 24.9584 41.2292 31.1043Z" stroke="white" stroke-width="1.5" stroke-miterlimit="10" stroke-linecap="round" stroke-linejoin="round"/>
<path d="M14.3542 36.4375L19.1459 41.2292" stroke="white" stroke-width="1.5" stroke-miterlimit="10" stroke-linecap="round" stroke-linejoin="round"/>
<path d="M30.2083 22.9167C31.9342 22.9167 33.3333 21.5176 33.3333 19.7917C33.3333 18.0659 31.9342 16.6667 30.2083 16.6667C28.4824 16.6667 27.0833 18.0659 27.0833 19.7917C27.0833 21.5176 28.4824 22.9167 30.2083 22.9167Z" stroke="white" stroke-width="1.5" stroke-linecap="round" stroke-linejoin="round"/>
</svg>
