<svg width="50" height="50" viewBox="0 0 50 50" fill="none" xmlns="http://www.w3.org/2000/svg">
<path d="M41.6667 19.9999C41.6667 11.6666 38.3333 8.33325 30 8.33325H20C11.6667 8.33325 8.33334 11.6666 8.33334 19.9999V29.9999C8.33334 38.3333 11.6667 41.6666 20 41.6666" stroke="white" stroke-width="1.5" stroke-linecap="round" stroke-linejoin="round"/>
<path d="M34.0625 16.6666C32.9167 15.2083 31 14.5833 28.125 14.5833H21.875C16.6667 14.5833 14.5833 16.6666 14.5833 21.8749V28.1249C14.5833 30.9999 15.2083 32.9166 16.6458 34.0624" stroke="white" stroke-width="1.5" stroke-linecap="round" stroke-linejoin="round"/>
<path d="M16.6875 8.33341V4.16675" stroke="white" stroke-width="1.5" stroke-linecap="round" stroke-linejoin="round"/>
<path d="M25 8.33341V4.16675" stroke="white" stroke-width="1.5" stroke-linecap="round" stroke-linejoin="round"/>
<path d="M33.3333 8.33341V4.16675" stroke="white" stroke-width="1.5" stroke-linecap="round" stroke-linejoin="round"/>
<path d="M41.6667 16.6667H45.8333" stroke="white" stroke-width="1.5" stroke-linecap="round" stroke-linejoin="round"/>
<path d="M16.6875 41.6667V45.8334" stroke="white" stroke-width="1.5" stroke-linecap="round" stroke-linejoin="round"/>
<path d="M4.16666 16.6667H8.33333" stroke="white" stroke-width="1.5" stroke-linecap="round" stroke-linejoin="round"/>
<path d="M4.16666 25H8.33333" stroke="white" stroke-width="1.5" stroke-linecap="round" stroke-linejoin="round"/>
<path d="M4.16666 33.3333H8.33333" stroke="white" stroke-width="1.5" stroke-linecap="round" stroke-linejoin="round"/>
<path d="M34.8125 38.729C36.6419 38.729 38.125 37.2459 38.125 35.4165C38.125 33.5871 36.6419 32.104 34.8125 32.104C32.9831 32.104 31.5 33.5871 31.5 35.4165C31.5 37.2459 32.9831 38.729 34.8125 38.729Z" stroke="white" stroke-width="1.5" stroke-miterlimit="10" stroke-linecap="round" stroke-linejoin="round"/>
<path d="M23.7708 36.3752V34.4377C23.7708 33.2918 24.7083 32.3543 25.8542 32.3543C27.8542 32.3543 28.6667 30.9377 27.6667 29.2085C27.0833 28.2085 27.4375 26.9168 28.4375 26.3543L30.3333 25.2502C31.2083 24.7293 32.3333 25.0418 32.8542 25.9168L32.9792 26.1252C33.9792 27.8543 35.6042 27.8543 36.6042 26.1252L36.7292 25.9168C37.25 25.0418 38.375 24.7502 39.25 25.2502L41.1458 26.3543C42.1458 26.9377 42.5 28.2085 41.9167 29.2085C40.9167 30.9377 41.7292 32.3543 43.7292 32.3543C44.875 32.3543 45.8125 33.2918 45.8125 34.4377V36.3752C45.8125 37.521 44.875 38.4585 43.7292 38.4585C41.7292 38.4585 40.9167 39.8752 41.9167 41.6043C42.5 42.6043 42.1458 43.896 41.1458 44.4585L39.25 45.5627C38.375 46.0835 37.25 45.771 36.7292 44.896L36.6042 44.6877C35.6042 42.9585 33.9792 42.9585 32.9792 44.6877L32.8542 44.896C32.3333 45.771 31.2083 46.0627 30.3333 45.5627L28.4375 44.4585C27.4375 43.8752 27.0833 42.6043 27.6667 41.6043C28.6667 39.8752 27.8542 38.4585 25.8542 38.4585C24.7083 38.4793 23.7708 37.5418 23.7708 36.3752Z" stroke="white" stroke-width="1.5" stroke-miterlimit="10" stroke-linecap="round" stroke-linejoin="round"/>
</svg>
