<svg width="50" height="50" viewBox="0 0 50 50" fill="none" xmlns="http://www.w3.org/2000/svg">
<path d="M13.2708 19.8125C4.77082 20.4167 4.79165 32.7292 13.2708 33.3333H33.3958C35.8333 33.3542 38.1875 32.4376 40 30.7917C45.9584 25.5834 42.7708 15.1667 34.9167 14.1667C32.1042 -2.79168 7.54167 3.64587 13.3542 19.8125" stroke="white" stroke-width="1.5" stroke-miterlimit="10" stroke-linecap="round" stroke-linejoin="round"/>
<path d="M25 33.3333V39.5833" stroke="white" stroke-width="1.5" stroke-miterlimit="10" stroke-linecap="round" stroke-linejoin="round"/>
<path d="M25 47.9166C27.3012 47.9166 29.1666 46.0511 29.1666 43.7499C29.1666 41.4487 27.3012 39.5833 25 39.5833C22.6988 39.5833 20.8333 41.4487 20.8333 43.7499C20.8333 46.0511 22.6988 47.9166 25 47.9166Z" stroke="white" stroke-width="1.5" stroke-miterlimit="10" stroke-linecap="round" stroke-linejoin="round"/>
<path d="M37.5 43.75H29.1667" stroke="white" stroke-width="1.5" stroke-miterlimit="10" stroke-linecap="round" stroke-linejoin="round"/>
<path d="M20.8333 43.75H12.5" stroke="white" stroke-width="1.5" stroke-miterlimit="10" stroke-linecap="round" stroke-linejoin="round"/>
</svg>
